<svg xmlns="http://www.w3.org/2000/svg" xmlns:xlink="http://www.w3.org/1999/xlink" version="1.1" x="0px" y="0px" viewBox="0 0 100 125" enable-background="new 0 0 100 100" xml:space="preserve"><path d="M71.508,40.405l-7.215-6.05l-28.587-0.009l-7.215,6.052l2.254,9.188h4.658l-3.205,4.717v11.35h35.603v-11.35l-3.2-4.71  h4.656L71.508,40.405z M64.328,62.181H35.671v-6.809l6.709-9.87h15.242l6.706,9.87V62.181z M66.464,46.033h-4.283l-2.721-4.004  H40.54l-2.717,3.997h-4.286l-1.061-4.323l4.524-3.796l25.997,0.007l4.525,3.796L66.464,46.033z M50,47.537  c-3.476,0-6.304,2.828-6.304,6.305c0,3.476,2.828,6.304,6.304,6.304c3.477,0,6.305-2.828,6.305-6.304  C56.305,50.365,53.477,47.537,50,47.537z M50,56.528c-1.481,0-2.687-1.205-2.687-2.687c0-1.482,1.205-2.688,2.687-2.688  c1.482,0,2.688,1.205,2.688,2.688C52.688,55.323,51.482,56.528,50,56.528z"/><text x="0" y="115" fill="#000000" font-size="5px" font-weight="bold" font-family="'Helvetica Neue', Helvetica, Arial-Unicode, Arial, Sans-serif">Created by Sergey Demushkin</text><text x="0" y="120" fill="#000000" font-size="5px" font-weight="bold" font-family="'Helvetica Neue', Helvetica, Arial-Unicode, Arial, Sans-serif">from the Noun Project</text></svg>